<?xml version="1.0" standalone="no"?>
<!DOCTYPE svg PUBLIC "-//W3C//DTD SVG 20010904//EN"
 "http://www.w3.org/TR/2001/REC-SVG-20010904/DTD/svg10.dtd">
<svg version="1.0" xmlns="http://www.w3.org/2000/svg"
 width="2084.000000pt" height="2084.000000pt" viewBox="0 0 2084.000000 2084.000000"
 preserveAspectRatio="xMidYMid meet">

<g transform="translate(0.000000,2084.000000) scale(0.100000,-0.100000)"
fill="#000000" stroke="none">
<path d="M9700 19948 c-18 -68 -65 -247 -105 -398 -66 -251 -74 -275 -96 -281
-44 -13 -469 -71 -482 -66 -8 3 -108 161 -223 351 -115 190 -215 346 -222 346
-17 0 -873 -229 -885 -237 -6 -4 -8 -163 -6 -415 l4 -410 -229 -99 c-126 -54
-234 -99 -239 -99 -9 0 -63 50 -413 386 l-191 184 -398 -229 c-218 -126 -399
-232 -402 -234 -2 -3 43 -180 101 -394 58 -214 106 -393 106 -399 0 -6 -90
-82 -200 -168 l-201 -158 -362 200 -362 200 -327 -327 c-181 -179 -328 -329
-328 -333 0 -4 92 -166 205 -359 l205 -352 -37 -51 c-21 -28 -90 -121 -154
-207 l-117 -156 -403 99 c-221 54 -403 97 -405 96 -1 -2 -106 -183 -234 -403
l-231 -400 290 -286 c160 -157 291 -292 291 -299 0 -17 -168 -450 -181 -466
-6 -8 -137 -14 -417 -19 -224 -4 -410 -10 -413 -13 -9 -10 -243 -891 -238
-895 2 -2 159 -93 349 -201 190 -109 349 -201 354 -206 8 -8 -43 -493 -54
-509 -3 -4 -182 -59 -398 -122 l-392 -113 0 -466 0 -466 398 -105 397 -105 37
-254 c20 -140 36 -255 35 -256 -1 -1 -159 -98 -352 -214 -192 -117 -351 -213
-353 -215 -2 -1 51 -202 116 -446 l119 -444 415 -3 415 -2 101 -237 102 -238
-58 -60 c-364 -378 -512 -534 -512 -540 0 -9 432 -760 452 -787 12 -16 36 -11
303 63 160 43 338 92 396 108 l107 29 156 -198 c86 -109 156 -204 156 -210 0
-6 -88 -171 -196 -367 l-196 -356 329 -329 329 -329 355 206 c313 182 356 205
374 194 19 -12 372 -274 388 -289 5 -4 -35 -183 -87 -397 -53 -215 -96 -396
-96 -404 0 -13 775 -469 796 -469 5 0 139 131 299 290 l290 290 235 -94 235
-94 6 -118 c4 -66 7 -216 9 -334 1 -118 5 -253 8 -299 l7 -84 444 -119 c245
-65 448 -115 451 -111 4 5 94 161 200 348 106 187 198 345 204 351 8 8 80 3
261 -19 138 -16 251 -30 252 -31 1 -1 50 -166 108 -366 58 -201 110 -380 116
-397 l11 -33 463 0 c433 0 464 1 469 18 3 9 50 187 105 396 55 208 102 380
103 381 5 6 509 78 512 74 1 -2 98 -162 215 -356 l212 -351 32 8 c524 141 858
230 862 230 3 0 6 187 7 416 l3 417 232 100 232 100 187 -179 c103 -98 238
-228 300 -287 l114 -109 384 222 c211 122 392 227 401 234 17 12 10 40 -90
410 -59 218 -106 398 -104 400 97 80 396 309 403 309 6 0 172 -89 370 -198
l359 -197 328 328 328 329 -209 359 -208 358 151 204 c84 112 158 203 164 204
7 0 189 -43 404 -96 215 -53 394 -92 399 -88 4 5 110 187 235 404 l228 395
-293 286 c-244 238 -292 290 -287 308 3 12 44 120 92 240 l88 218 60 7 c33 3
126 6 207 6 81 0 241 3 356 7 l210 6 118 441 c64 243 117 446 116 451 0 6
-158 100 -351 209 -193 110 -353 205 -355 211 -7 17 53 496 62 505 5 4 186 59
402 121 l392 113 -2 465 -3 464 -385 102 c-212 56 -392 104 -400 107 -11 3
-23 66 -51 257 l-36 252 26 18 c14 10 174 107 354 215 315 191 328 199 322
225 -3 14 -56 215 -118 446 l-113 420 -414 3 -415 2 -98 228 c-53 125 -97 233
-97 240 0 7 126 145 280 305 154 161 280 297 280 302 0 9 -430 762 -452 791
-5 8 -129 -22 -405 -98 -219 -59 -399 -108 -400 -108 -5 0 -313 359 -313 365
0 3 95 182 211 396 116 214 209 394 207 398 -4 11 -685 591 -693 591 -4 0
-158 -87 -343 -194 -185 -107 -344 -198 -353 -201 -11 -4 -78 45 -215 156
-110 89 -200 163 -202 165 -3 2 182 767 193 801 4 11 -782 473 -804 473 -5 0
-138 -131 -295 -292 l-286 -292 -236 94 c-130 52 -238 99 -240 105 -2 5 -7
191 -11 412 -5 221 -11 405 -15 408 -6 6 -891 246 -894 242 0 -1 -92 -162
-204 -357 -111 -195 -203 -356 -204 -357 -2 -2 -510 58 -513 60 0 1 -53 180
-116 397 l-114 395 -465 3 -465 2 -33 -122z m918 -474 c61 -213 113 -388 115
-390 2 -2 178 -24 392 -50 360 -42 390 -45 401 -29 7 9 97 165 200 346 104
181 194 329 201 329 12 0 575 -149 580 -154 1 -1 4 -161 8 -356 3 -195 8 -378
11 -406 l5 -51 366 -146 367 -146 281 286 282 287 266 -154 c195 -113 266
-159 262 -170 -19 -62 -185 -756 -183 -765 2 -7 107 -97 233 -200 127 -104
264 -216 306 -251 l75 -63 353 205 354 204 56 -48 c31 -27 134 -115 228 -196
l173 -147 -19 -37 c-11 -20 -103 -192 -205 -381 -102 -189 -186 -348 -186
-353 0 -16 483 -568 497 -568 8 0 182 46 389 102 206 55 376 99 378 97 6 -7
297 -514 299 -521 1 -3 -122 -136 -273 -294 -151 -158 -276 -292 -277 -298 -2
-6 66 -171 150 -366 l153 -355 404 -5 405 -5 78 -289 c42 -159 74 -293 70
-297 -5 -4 -159 -98 -343 -210 -184 -111 -337 -204 -339 -205 -5 -5 97 -728
108 -764 7 -23 32 -31 392 -126 l384 -101 3 -306 2 -306 -49 -15 c-27 -8 -201
-58 -387 -112 -187 -54 -341 -99 -342 -100 -5 -3 -92 -730 -92 -764 0 -23 34
-45 345 -224 190 -109 345 -200 345 -203 0 -3 -34 -135 -77 -293 l-76 -288
-36 -6 c-20 -3 -102 -6 -182 -6 -80 0 -247 -3 -371 -7 l-225 -6 -147 -366
-146 -366 285 -285 284 -285 -150 -260 c-83 -143 -153 -262 -155 -264 -1 -2
-173 38 -381 90 -208 51 -386 93 -395 93 -11 1 -100 -111 -252 -313 l-235
-314 18 -31 c79 -132 381 -657 381 -663 0 -4 -96 -104 -214 -222 l-213 -213
-304 167 c-167 92 -327 180 -355 196 l-52 29 -293 -231 c-162 -127 -302 -238
-311 -247 -16 -16 -11 -39 88 -401 57 -211 101 -387 97 -391 -18 -16 -505
-293 -517 -294 -7 0 -142 123 -301 274 -158 151 -293 274 -299 272 -6 -1 -170
-71 -363 -154 l-353 -150 0 -404 c0 -222 -2 -404 -4 -404 -3 0 -130 -34 -283
-75 -153 -41 -285 -75 -293 -75 -9 0 -98 138 -223 344 l-209 344 -31 -4 c-18
-3 -194 -29 -392 -57 l-360 -52 -92 -345 c-50 -190 -96 -364 -102 -387 l-11
-43 -308 0 -307 0 -110 381 c-60 209 -112 384 -115 389 -5 7 -780 103 -786 97
-1 -1 -86 -148 -189 -327 -102 -179 -193 -334 -200 -346 -14 -21 -14 -21 -305
57 -161 43 -293 79 -295 81 -2 2 -7 185 -11 407 l-9 403 -360 144 c-198 79
-364 144 -370 144 -5 0 -137 -127 -292 -282 l-281 -281 -154 88 c-84 49 -201
116 -260 149 -66 38 -108 67 -108 77 0 14 173 733 185 766 5 15 -623 486 -640
479 -7 -2 -165 -93 -350 -201 l-338 -197 -214 214 c-117 117 -213 216 -213
221 0 4 86 163 191 353 104 191 189 352 187 360 -4 18 -468 605 -483 610 -7 3
-179 -40 -382 -95 -203 -56 -376 -101 -384 -101 -12 1 -284 458 -304 512 -5
13 61 88 269 305 152 158 276 292 276 298 0 6 -69 171 -153 366 l-153 354
-402 0 -403 0 -10 40 c-114 416 -147 550 -136 557 7 4 162 99 345 210 300 182
332 204 332 227 -1 43 -106 751 -113 758 -4 3 -179 52 -389 107 l-383 101 -3
306 -2 306 392 114 392 114 47 390 c25 215 43 393 40 397 -3 3 -157 93 -341
198 -184 105 -338 195 -342 199 -8 7 138 570 151 584 4 4 187 12 407 18 219 5
401 13 405 17 3 4 70 168 149 366 l143 358 -285 287 -285 286 148 255 c82 140
150 259 152 263 1 5 178 -34 393 -87 214 -53 393 -96 397 -96 3 0 112 142 242
316 l236 316 -201 344 c-110 189 -200 347 -200 351 0 5 96 104 213 221 l213
213 357 -196 357 -197 38 30 c339 266 577 456 579 461 2 3 -44 179 -101 391
-58 211 -104 385 -103 386 1 1 120 70 265 153 l263 152 196 -188 c107 -103
240 -230 293 -281 l99 -92 358 153 358 154 3 404 2 404 296 79 c247 66 297 77
305 65 5 -8 100 -164 211 -347 202 -333 202 -333 233 -328 16 3 193 28 391 57
l361 52 98 370 c54 203 100 378 102 388 5 18 21 19 312 19 l307 0 112 -386z"/>
<path d="M10078 18653 c-75 -159 -139 -299 -143 -312 -6 -21 -12 -15 -50 55
-84 156 -301 509 -313 508 -7 -1 -48 -2 -92 -2 -44 -1 -80 -6 -80 -10 0 -12
529 -877 539 -880 7 -2 78 141 357 716 l103 212 -93 0 -93 0 -135 -287z"/>
<path d="M10640 18913 c0 -5 -20 -201 -45 -438 -24 -236 -42 -432 -39 -434 5
-6 617 -71 621 -67 2 2 6 30 9 63 l7 60 -39 6 c-22 3 -121 13 -221 23 -173 16
-183 19 -183 38 0 12 5 76 12 144 10 99 15 122 27 121 9 0 109 -10 223 -22
l208 -23 5 31 c2 16 6 44 8 61 4 37 26 32 -262 60 l-183 18 6 61 c4 33 9 84
12 112 l6 53 37 -6 c47 -6 405 -42 408 -40 1 0 3 28 5 61 l3 60 -260 26 c-143
15 -284 30 -312 33 -29 3 -53 3 -53 -1z"/>
<path d="M9085 18833 c-43 -8 -81 -16 -83 -18 -2 -2 29 -200 69 -439 62 -373
75 -436 88 -432 9 3 49 10 89 16 51 8 72 16 72 26 0 8 -31 203 -70 434 -38
231 -70 422 -70 425 0 6 6 7 -95 -12z"/>
<path d="M11481 18387 c-58 -226 -105 -421 -105 -431 -1 -16 12 -23 69 -37 39
-10 75 -19 81 -19 6 0 32 86 59 190 26 105 52 189 57 188 6 -2 71 -111 146
-243 l137 -239 90 -23 c50 -12 93 -21 98 -20 4 1 -54 108 -128 237 l-135 235
77 6 c124 9 167 35 209 124 39 82 28 181 -27 248 -45 55 -133 94 -321 142 -95
25 -180 47 -188 50 -12 4 -35 -75 -119 -408z m348 218 c48 -16 91 -37 110 -54
27 -25 31 -36 31 -79 0 -59 -32 -107 -80 -117 -25 -5 -192 19 -211 31 -9 5 51
244 62 244 4 0 44 -11 88 -25z"/>
<path d="M8530 18735 c-36 -12 -64 -26 -64 -31 1 -5 40 -132 88 -282 47 -150
86 -277 86 -282 0 -5 -21 0 -47 12 -60 26 -937 336 -941 332 -3 -2 267 -864
272 -871 1 -1 38 9 83 23 l81 25 -37 117 c-21 64 -62 192 -91 284 -29 93 -51
171 -48 174 3 3 23 -3 45 -14 47 -24 933 -336 938 -330 2 2 -58 198 -133 436
-102 324 -140 432 -152 431 -8 0 -44 -11 -80 -24z"/>
<path d="M12562 18447 c-81 -30 -141 -111 -142 -192 0 -73 39 -134 179 -278
131 -136 151 -164 151 -217 0 -37 -48 -86 -94 -94 -109 -21 -276 89 -276 181
0 31 -2 33 -34 33 -18 0 -54 3 -80 6 l-46 7 0 -44 c0 -134 144 -263 350 -315
197 -50 370 51 370 216 0 75 -32 125 -159 255 -162 165 -184 200 -160 256 25
61 108 76 196 35 51 -24 113 -91 113 -123 0 -10 20 -13 80 -13 91 0 94 4 61
75 -37 81 -161 171 -290 209 -63 18 -171 20 -219 3z"/>
<path d="M7215 18240 c-39 -22 -74 -41 -79 -43 -5 -2 54 -115 131 -253 77
-137 145 -264 151 -283 40 -114 -28 -224 -183 -300 -124 -61 -238 -49 -300 33
-13 17 -83 137 -155 266 -72 129 -135 239 -140 244 -7 7 -129 -51 -153 -74
-12 -11 268 -510 316 -565 43 -50 121 -92 189 -101 134 -18 399 102 525 239
87 95 114 208 76 317 -17 46 -281 530 -301 552 -4 4 -39 -11 -77 -32z"/>
<path d="M13221 17734 c-184 -335 -210 -387 -196 -397 25 -19 145 -80 149 -76
14 19 416 760 416 768 0 8 -140 91 -153 91 -2 0 -100 -174 -216 -386z"/>
<path d="M13760 17886 c-16 -25 -30 -47 -30 -50 0 -4 137 -102 233 -167 5 -4
-89 -146 -208 -318 -119 -171 -213 -315 -210 -320 3 -6 35 -31 72 -56 47 -33
69 -43 76 -36 6 6 104 145 218 309 114 163 213 297 221 296 7 -1 59 -33 116
-73 56 -39 108 -74 115 -77 7 -2 27 16 46 43 32 45 32 47 15 61 -58 43 -623
432 -628 432 -3 0 -19 -20 -36 -44z"/>
<path d="M9995 17859 c-1154 -45 -2280 -446 -3210 -1141 -229 -171 -397 -318
-636 -557 -311 -312 -516 -563 -742 -906 -475 -724 -786 -1559 -897 -2407 -38
-299 -45 -408 -44 -773 0 -374 10 -524 55 -830 146 -1003 555 -1951 1186
-2748 938 -1184 2301 -1956 3788 -2146 280 -36 432 -45 750 -44 337 0 553 15
850 59 1227 182 2354 751 3235 1634 874 875 1437 1983 1624 3200 76 491 87
1048 30 1545 -129 1138 -601 2222 -1346 3092 -49 56 -88 109 -88 118 0 8 -6
15 -14 15 -8 0 -55 44 -105 98 -162 173 -429 414 -653 590 -36 29 -68 56 -70
60 -2 4 -15 14 -30 22 -15 8 -101 65 -190 126 -1031 701 -2233 1043 -3493 993z
m680 -280 c61 -5 118 -9 128 -9 16 0 17 -149 17 -2990 l0 -2990 -235 0 -235 0
0 3005 0 3005 108 -6 c59 -3 157 -10 217 -15z m-695 -124 l0 -135 -160 0 -160
0 0 124 0 124 88 7 c48 3 94 8 102 9 8 2 41 4 73 5 l57 1 0 -135z m-430 -20
l0 -115 -130 0 -130 0 0 95 c0 74 3 97 15 101 20 8 173 31 213 33 l32 1 0
-115z m1905 28 c88 -19 170 -39 183 -44 l22 -9 0 -2910 0 -2910 -235 0 -235 0
0 2961 0 2962 53 -7 c28 -4 124 -23 212 -43z m-2265 -53 l0 -90 -130 0 -130 0
0 59 c0 69 -12 61 148 96 59 13 108 24 110 24 1 1 2 -39 2 -89z m-360 -45 l0
-45 -130 0 c-77 0 -130 4 -130 10 0 5 46 23 103 40 56 18 107 33 112 35 36 12
45 5 45 -40z m3311 -104 c147 -54 332 -131 346 -143 10 -8 13 -569 13 -2769
l0 -2759 -235 0 -235 0 0 2855 c0 1570 2 2855 4 2855 2 0 50 -17 107 -39z
m-3671 -166 l0 -125 -130 0 -130 0 0 118 c0 65 3 122 7 125 3 4 62 7 130 7
l123 0 0 -125z m360 0 l0 -125 -130 0 -130 0 0 125 0 125 130 0 130 0 0 -125z
m360 0 l0 -125 -130 0 -130 0 0 125 0 125 130 0 130 0 0 -125z m360 0 l0 -125
-130 0 -130 0 0 125 0 125 130 0 130 0 0 -125z m430 0 l0 -125 -160 0 -160 0
0 125 0 125 160 0 160 0 0 -125z m-1870 -25 l0 -100 -130 0 -130 0 0 43 0 43
128 57 c70 31 128 57 130 57 1 0 2 -45 2 -100z m-370 -85 c0 -10 -10 -15 -27
-15 l-28 1 25 14 c31 18 30 18 30 0z m5365 -190 c55 -33 130 -81 167 -106 l68
-44 0 -2527 0 -2528 -235 0 -235 0 0 2671 0 2671 68 -38 c37 -21 112 -65 167
-99z m-5365 -60 l0 -125 -125 0 -125 0 0 125 0 125 125 0 125 0 0 -125z m370
0 l0 -125 -130 0 -130 0 0 125 0 125 130 0 130 0 0 -125z m360 0 l0 -125 -130
0 -130 0 0 125 0 125 130 0 130 0 0 -125z m360 0 l0 -125 -130 0 -130 0 0 125
0 125 130 0 130 0 0 -125z m360 0 l0 -125 -130 0 -130 0 0 125 0 125 130 0
130 0 0 -125z m360 0 l0 -125 -130 0 -130 0 0 125 0 125 130 0 130 0 0 -125z
m430 0 l0 -125 -160 0 -160 0 0 125 0 125 160 0 160 0 0 -125z m-2600 -35 l0
-90 -130 0 c-83 0 -130 4 -130 10 0 11 237 170 252 170 5 0 8 -40 8 -90z
m-360 -320 l0 -131 -127 3 -128 3 0 55 0 54 93 73 c75 58 100 73 128 73 l34 0
0 -130z m360 0 l0 -131 -127 3 -128 3 -3 114 c-1 63 0 121 2 128 4 10 37 13
131 13 l125 0 0 -130z m360 0 l0 -130 -125 0 -125 0 0 130 0 130 125 0 125 0
0 -130z m365 0 l0 -125 -127 -3 -128 -3 0 131 0 131 128 -3 127 -3 0 -125z
m365 0 l0 -130 -130 0 -130 0 0 130 0 130 130 0 130 0 0 -130z m360 0 l0 -130
-130 0 -130 0 0 130 0 130 130 0 130 0 0 -130z m360 0 l0 -130 -130 0 -130 0
0 130 0 130 130 0 130 0 0 -130z m360 0 l0 -131 -127 3 -128 3 -3 114 c-1 63
0 121 2 128 4 10 37 13 131 13 l125 0 0 -130z m430 0 l0 -130 -160 0 -160 0 0
130 0 130 160 0 160 0 0 -130z m4052 -293 l138 -128 0 -2185 0 -2184 -230 0
-230 0 0 2391 0 2390 92 -78 c51 -43 154 -136 230 -206z m-7372 173 c0 -5 -5
-10 -11 -10 -5 0 -7 5 -4 10 3 6 8 10 11 10 2 0 4 -4 4 -10z m0 -235 l0 -125
-130 0 -130 0 0 67 0 67 57 58 57 58 73 0 73 0 0 -125z m360 0 l0 -125 -130 0
-130 0 0 125 0 125 130 0 130 0 0 -125z m360 0 l0 -125 -130 0 -130 0 0 125 0
125 130 0 130 0 0 -125z m360 0 l0 -125 -125 0 -125 0 0 125 0 125 125 0 125
0 0 -125z m370 0 l0 -125 -130 0 -130 0 0 125 0 125 130 0 130 0 0 -125z m360
0 l0 -125 -130 0 -130 0 0 125 0 125 130 0 130 0 0 -125z m360 0 l0 -125 -130
0 -130 0 0 125 0 125 130 0 130 0 0 -125z m360 0 l0 -125 -130 0 -130 0 0 125
0 125 130 0 130 0 0 -125z m360 0 l0 -125 -130 0 -130 0 0 125 0 125 130 0
130 0 0 -125z m430 0 l0 -125 -160 0 -160 0 0 125 0 125 160 0 160 0 0 -125z
m-3680 -110 c0 -8 -7 -15 -16 -15 -14 0 -14 3 -4 15 7 8 14 15 16 15 2 0 4 -7
4 -15z m0 -250 l0 -125 -130 0 -130 0 0 58 c0 56 2 60 58 124 l57 67 73 0 72
1 0 -125z m360 0 l0 -125 -130 0 -130 0 0 125 0 125 130 0 130 0 0 -125z m360
0 l0 -125 -130 0 -130 0 0 125 0 125 130 0 130 0 0 -125z m360 0 l0 -125 -130
0 -130 0 0 125 0 125 130 0 130 0 0 -125z m360 0 l0 -125 -125 0 -125 0 0 125
0 125 125 0 125 0 0 -125z m370 0 l0 -125 -130 0 -130 0 0 125 0 125 130 0
130 0 0 -125z m360 0 l0 -125 -130 0 -130 0 0 125 0 125 130 0 130 0 0 -125z
m360 0 l0 -125 -130 0 -130 0 0 125 0 125 130 0 130 0 0 -125z m360 0 l0 -125
-130 0 -130 0 0 125 0 125 130 0 130 0 0 -125z m360 0 l0 -125 -130 0 -130 0
0 125 0 125 130 0 130 0 0 -125z m430 0 l0 -125 -160 0 -160 0 0 125 0 125
160 0 160 0 0 -125z m4703 -317 c57 -75 87 -125 87 -142 l0 -26 -110 0 -110 0
0 171 0 171 23 -29 c13 -15 63 -81 110 -145z m-8745 -36 c2 -95 0 -124 -11
-128 -7 -2 -66 -3 -130 -2 l-116 3 86 120 c47 66 91 123 97 128 6 4 25 6 41 5
l30 -3 3 -123z m362 -2 l0 -130 -130 0 -130 0 0 130 0 130 130 0 130 0 0 -130z
m360 0 l0 -130 -130 0 -130 0 0 130 0 130 130 0 130 0 0 -130z m360 0 l0 -131
-127 3 -128 3 -3 114 c-1 63 0 121 2 128 4 10 37 13 131 13 l125 0 0 -130z
m360 0 l0 -131 -127 3 -128 3 -3 114 c-1 63 0 121 2 128 4 10 37 13 131 13
l125 0 0 -130z m360 0 l0 -130 -125 0 -125 0 0 130 0 130 125 0 125 0 0 -130z
m365 0 l0 -125 -127 -3 -128 -3 0 131 0 131 128 -3 127 -3 0 -125z m365 0 l0
-130 -130 0 -130 0 0 130 0 130 130 0 130 0 0 -130z m360 0 l0 -130 -130 0
-130 0 0 130 0 130 130 0 130 0 0 -130z m360 0 l0 -130 -130 0 -130 0 0 130 0
130 130 0 130 0 0 -130z m360 0 l0 -131 -127 3 -128 3 -3 114 c-1 63 0 121 2
128 4 10 37 13 131 13 l125 0 0 -130z m430 0 l0 -130 -160 0 -160 0 0 130 0
130 160 0 160 0 0 -130z m-4040 -355 l0 -125 -130 0 -130 0 0 125 0 125 130 0
130 0 0 -125z m360 0 l0 -125 -130 0 -130 0 0 125 0 125 130 0 130 0 0 -125z
m360 0 l0 -125 -130 0 -130 0 0 125 0 125 130 0 130 0 0 -125z m360 0 l0 -125
-130 0 -130 0 0 125 0 125 130 0 130 0 0 -125z m360 0 l0 -125 -130 0 -130 0
0 125 0 125 130 0 130 0 0 -125z m360 0 l0 -125 -125 0 -125 0 0 125 0 125
125 0 125 0 0 -125z m370 0 l0 -125 -130 0 -130 0 0 125 0 125 130 0 130 0 0
-125z m360 0 l0 -125 -130 0 -130 0 0 125 0 125 130 0 130 0 0 -125z m360 0
l0 -125 -130 0 -130 0 0 125 0 125 130 0 130 0 0 -125z m360 0 l0 -125 -130 0
-130 0 0 125 0 125 130 0 130 0 0 -125z m360 0 l0 -125 -130 0 -130 0 0 125 0
125 130 0 130 0 0 -125z m430 0 l0 -125 -160 0 -160 0 0 125 0 125 160 0 160
0 0 -125z m4790 0 l0 -125 -110 0 -110 0 0 125 0 125 110 0 110 0 0 -125z
m176 3 c37 -62 69 -116 71 -120 2 -5 -30 -8 -71 -8 l-76 0 0 120 c0 66 2 120
4 120 3 0 35 -51 72 -112z m-9369 -125 c-3 -2 -30 -3 -60 -1 l-56 3 57 95 57
95 3 -94 c1 -51 1 -95 -1 -98z m3 -238 l0 -125 -130 0 -130 0 0 50 c0 37 9 68
37 125 l37 75 93 0 93 0 0 -125z m360 0 l0 -125 -130 0 -130 0 0 125 0 125
130 0 130 0 0 -125z m360 0 l0 -125 -130 0 -130 0 0 125 0 125 130 0 130 0 0
-125z m360 0 l0 -125 -130 0 -130 0 0 125 0 125 130 0 130 0 0 -125z m360 0
l0 -125 -130 0 -130 0 0 125 0 125 130 0 130 0 0 -125z m360 0 l0 -125 -130 0
-130 0 0 125 0 125 130 0 130 0 0 -125z m360 0 l0 -125 -125 0 -125 0 0 125 0
125 125 0 125 0 0 -125z m370 0 l0 -125 -130 0 -130 0 0 125 0 125 130 0 130
0 0 -125z m360 0 l0 -125 -130 0 -130 0 0 125 0 125 130 0 130 0 0 -125z m360
0 l0 -125 -130 0 -130 0 0 125 0 125 130 0 130 0 0 -125z m360 0 l0 -125 -130
0 -130 0 0 125 0 125 130 0 130 0 0 -125z m360 0 l0 -125 -130 0 -130 0 0 125
0 125 130 0 130 0 0 -125z m430 0 l0 -125 -160 0 -160 0 0 125 0 125 160 0
160 0 0 -125z m4790 0 l0 -125 -110 0 -110 0 0 125 0 125 110 0 110 0 0 -125z
m338 80 c17 -35 22 -64 22 -125 l0 -80 -130 0 -130 0 0 125 0 125 108 0 108 0
22 -45z m-9530 -432 l-3 -128 -127 -3 -128 -3 0 131 0 130 130 0 131 0 -3
-127z m360 0 l-3 -128 -127 -3 -128 -3 0 131 0 130 130 0 131 0 -3 -127z m362
-3 l0 -130 -130 0 -130 0 0 130 0 130 130 0 130 0 0 -130z m360 0 l0 -130
-130 0 -130 0 0 130 0 130 130 0 130 0 0 -130z m360 0 l0 -131 -127 3 -128 3
-3 128 -3 127 131 0 130 0 0 -130z m360 0 l0 -131 -127 3 -128 3 -3 128 -3
127 131 0 130 0 0 -130z m360 0 l0 -130 -125 0 -125 0 0 130 0 130 125 0 125
0 0 -130z m368 3 l-3 -128 -127 -3 -128 -3 0 131 0 130 130 0 131 0 -3 -127z
m362 -3 l0 -130 -130 0 -130 0 0 130 0 130 130 0 130 0 0 -130z m360 0 l0
-130 -130 0 -130 0 0 130 0 130 130 0 130 0 0 -130z m360 0 l0 -130 -130 0
-130 0 0 130 0 130 130 0 130 0 0 -130z m360 0 l0 -131 -127 3 -128 3 -3 128
-3 127 131 0 130 0 0 -130z m430 0 l0 -130 -160 0 -160 0 0 130 0 130 160 0
160 0 0 -130z m4790 0 l0 -130 -110 0 -110 0 0 130 0 130 110 0 110 0 0 -130z
m358 3 l-3 -128 -125 0 -125 0 -3 128 -3 127 131 0 131 0 -3 -127z m168 47
c18 -41 42 -99 53 -127 l21 -53 -70 0 -70 0 0 131 c0 115 2 130 16 127 10 -2
31 -35 50 -78z m-10086 -70 l0 -110 -45 0 c-25 0 -45 5 -45 11 0 13 81 209 86
209 2 0 4 -49 4 -110z m0 -335 l0 -125 -110 0 c-62 0 -110 4 -110 9 0 5 18 62
41 125 l41 116 69 0 69 0 0 -125z m370 0 l0 -125 -130 0 -130 0 0 125 0 125
130 0 130 0 0 -125z m360 0 l0 -125 -130 0 -130 0 0 125 0 125 130 0 130 0 0
-125z m360 0 l0 -125 -130 0 -130 0 0 125 0 125 130 0 130 0 0 -125z m360 0
l0 -125 -130 0 -130 0 0 125 0 125 130 0 130 0 0 -125z m360 0 l0 -125 -130 0
-130 0 0 125 0 125 130 0 130 0 0 -125z m360 0 l0 -125 -130 0 -130 0 0 125 0
125 130 0 130 0 0 -125z m360 0 l0 -125 -125 0 -125 0 0 125 0 125 125 0 125
0 0 -125z m370 0 l0 -125 -130 0 -130 0 0 125 0 125 130 0 130 0 0 -125z m360
0 l0 -125 -130 0 -130 0 0 125 0 125 130 0 130 0 0 -125z m360 0 l0 -125 -130
0 -130 0 0 125 0 125 130 0 130 0 0 -125z m360 0 l0 -125 -130 0 -130 0 0 125
0 125 130 0 130 0 0 -125z m360 0 l0 -125 -130 0 -130 0 0 125 0 125 130 0
130 0 0 -125z m430 0 l0 -125 -160 0 -160 0 0 125 0 125 160 0 160 0 0 -125z
m4790 0 l0 -125 -110 0 -110 0 0 125 0 125 110 0 110 0 0 -125z m360 0 l0
-125 -130 0 -130 0 0 125 0 125 130 0 130 0 0 -125z m285 108 c25 -62 65 -190
65 -210 0 -23 -1 -23 -125 -23 l-125 0 0 125 0 125 89 0 c75 0 90 -3 96 -17z
m-10205 -468 l0 -125 -130 0 -130 0 0 125 0 125 130 0 130 0 0 -125z m370 0
l0 -125 -130 0 -130 0 0 125 0 125 130 0 130 0 0 -125z m360 0 l0 -125 -130 0
-130 0 0 125 0 125 130 0 130 0 0 -125z m360 0 l0 -125 -130 0 -130 0 0 125 0
125 130 0 130 0 0 -125z m360 0 l0 -125 -130 0 -130 0 0 125 0 125 130 0 130
0 0 -125z m360 0 l0 -125 -130 0 -130 0 0 125 0 125 130 0 130 0 0 -125z m360
0 l0 -125 -130 0 -130 0 0 125 0 125 130 0 130 0 0 -125z m360 0 l0 -125 -125
0 -125 0 0 125 0 125 125 0 125 0 0 -125z m370 0 l0 -125 -130 0 -130 0 0 125
0 125 130 0 130 0 0 -125z m360 0 l0 -125 -130 0 -130 0 0 125 0 125 130 0
130 0 0 -125z m360 0 l0 -125 -130 0 -130 0 0 125 0 125 130 0 130 0 0 -125z
m360 0 l0 -125 -130 0 -130 0 0 125 0 125 130 0 130 0 0 -125z m360 0 l0 -125
-130 0 -130 0 0 125 0 125 130 0 130 0 0 -125z m430 0 l0 -125 -160 0 -160 0
0 125 0 125 160 0 160 0 0 -125z m4790 0 l0 -125 -110 0 -110 0 0 125 0 125
110 0 110 0 0 -125z m360 0 l0 -125 -130 0 -130 0 0 125 0 125 130 0 130 0 0
-125z m350 0 l0 -125 -125 0 -125 0 0 125 0 125 125 0 125 0 0 -125z m107
-117 c-3 -8 -6 -5 -6 6 -1 11 2 17 5 13 3 -3 4 -12 1 -19z m-10377 -238 l0
-131 -127 3 -128 3 -3 128 -3 127 131 0 130 0 0 -130z m368 3 l-3 -128 -127
-3 -128 -3 0 131 0 130 130 0 131 0 -3 -127z m360 0 l-3 -128 -127 -3 -128 -3
0 131 0 130 130 0 131 0 -3 -127z m362 -3 l0 -130 -130 0 -130 0 0 130 0 130
130 0 130 0 0 -130z m360 0 l0 -130 -130 0 -130 0 0 130 0 130 130 0 130 0 0
-130z m360 0 l0 -131 -127 3 -128 3 -3 128 -3 127 131 0 130 0 0 -130z m360 0
l0 -131 -127 3 -128 3 -3 128 -3 127 131 0 130 0 0 -130z m360 0 l0 -130 -125
0 -125 0 0 130 0 130 125 0 125 0 0 -130z m368 3 l-3 -128 -127 -3 -128 -3 0
131 0 130 130 0 131 0 -3 -127z m362 -3 l0 -130 -130 0 -130 0 0 130 0 130
130 0 130 0 0 -130z m360 0 l0 -130 -130 0 -130 0 0 130 0 130 130 0 130 0 0
-130z m360 0 l0 -130 -130 0 -130 0 0 130 0 130 130 0 130 0 0 -130z m360 0
l0 -131 -127 3 -128 3 -3 128 -3 127 131 0 130 0 0 -130z m430 0 l0 -130 -160
0 -160 0 0 130 0 130 160 0 160 0 0 -130z m4790 0 l0 -130 -110 0 -110 0 0
130 0 130 110 0 110 0 0 -130z m358 3 l-3 -128 -125 0 -125 0 -3 128 -3 127
131 0 131 0 -3 -127z m352 -3 l0 -130 -125 0 -125 0 0 130 0 130 125 0 125 0
0 -130z m145 108 c11 -48 45 -221 45 -230 0 -5 -19 -8 -42 -6 l-43 3 -3 128
c-2 121 -2 127 18 127 12 0 22 -8 25 -22z m-10775 -148 c0 -85 -1 -90 -21 -90
-17 0 -20 5 -16 23 3 12 11 52 18 90 7 37 14 67 16 67 2 0 3 -40 3 -90z m0
-315 l0 -125 -45 0 c-25 0 -45 3 -45 8 0 4 7 54 15 112 8 58 15 111 15 118 0
7 13 12 30 12 l30 0 0 -125z m360 0 l0 -125 -130 0 -130 0 0 125 0 125 130 0
130 0 0 -125z m370 0 l0 -125 -130 0 -130 0 0 125 0 125 130 0 130 0 0 -125z
m360 0 l0 -125 -130 0 -130 0 0 125 0 125 130 0 130 0 0 -125z m360 0 l0 -125
-130 0 -130 0 0 125 0 125 130 0 130 0 0 -125z m360 0 l0 -125 -130 0 -130 0
0 125 0 125 130 0 130 0 0 -125z m360 0 l0 -125 -130 0 -130 0 0 125 0 125
130 0 130 0 0 -125z m360 0 l0 -125 -130 0 -130 0 0 125 0 125 130 0 130 0 0
-125z m360 0 l0 -125 -125 0 -125 0 0 125 0 125 125 0 125 0 0 -125z m370 0
l0 -125 -130 0 -130 0 0 125 0 125 130 0 130 0 0 -125z m360 0 l0 -125 -130 0
-130 0 0 125 0 125 130 0 130 0 0 -125z m360 0 l0 -125 -130 0 -130 0 0 125 0
125 130 0 130 0 0 -125z m360 0 l0 -125 -130 0 -130 0 0 125 0 125 130 0 130
0 0 -125z m360 0 l0 -125 -130 0 -130 0 0 125 0 125 130 0 130 0 0 -125z m430
0 l0 -125 -160 0 -160 0 0 125 0 125 160 0 160 0 0 -125z m4790 0 l0 -125
-110 0 -110 0 0 125 0 125 110 0 110 0 0 -125z m360 0 l0 -125 -130 0 -130 0
0 125 0 125 130 0 130 0 0 -125z m350 0 l0 -125 -125 0 -125 0 0 125 0 125
125 0 125 0 0 -125z m210 118 c0 -5 7 -53 15 -108 21 -147 26 -135 -55 -135
l-70 0 0 125 0 125 55 0 c30 0 55 -3 55 -7z m-10840 -478 l0 -125 -60 0 -60 0
5 73 c3 39 8 96 11 125 l5 52 50 0 49 0 0 -125z m360 0 l0 -125 -130 0 -130 0
0 125 0 125 130 0 130 0 0 -125z m370 0 l0 -125 -130 0 -130 0 0 125 0 125
130 0 130 0 0 -125z m360 0 l0 -125 -130 0 -130 0 0 125 0 125 130 0 130 0 0
-125z m360 0 l0 -125 -130 0 -130 0 0 125 0 125 130 0 130 0 0 -125z m360 0
l0 -125 -130 0 -130 0 0 125 0 125 130 0 130 0 0 -125z m360 0 l0 -125 -130 0
-130 0 0 125 0 125 130 0 130 0 0 -125z m360 0 l0 -125 -130 0 -130 0 0 125 0
125 130 0 130 0 0 -125z m360 0 l0 -125 -125 0 -125 0 0 125 0 125 125 0 125
0 0 -125z m370 0 l0 -125 -130 0 -130 0 0 125 0 125 130 0 130 0 0 -125z m360
0 l0 -125 -130 0 -130 0 0 125 0 125 130 0 130 0 0 -125z m360 0 l0 -125 -130
0 -130 0 0 125 0 125 130 0 130 0 0 -125z m360 0 l0 -125 -130 0 -130 0 0 125
0 125 130 0 130 0 0 -125z m360 0 l0 -125 -130 0 -130 0 0 125 0 125 130 0
130 0 0 -125z m430 0 l0 -125 -160 0 -160 0 0 125 0 125 160 0 160 0 0 -125z
m4790 0 l0 -125 -110 0 -110 0 0 125 0 125 110 0 110 0 0 -125z m360 0 l0
-125 -130 0 -130 0 0 125 0 125 130 0 130 0 0 -125z m350 0 l0 -125 -125 0
-125 0 0 125 0 125 125 0 125 0 0 -125z m254 98 c2 -16 8 -72 11 -125 l7 -98
-86 0 -86 0 0 125 0 125 74 0 c73 0 74 0 80 -27z m-10884 -453 l0 -130 -60 0
-60 0 0 130 0 130 60 0 60 0 0 -130z m360 0 l0 -131 -127 3 -128 3 -3 128 -3
127 131 0 130 0 0 -130z m368 3 l-3 -128 -127 -3 -128 -3 0 131 0 130 130 0
131 0 -3 -127z m360 0 l-3 -128 -127 -3 -128 -3 0 131 0 130 130 0 131 0 -3
-127z m362 -3 l0 -130 -130 0 -130 0 0 130 0 130 130 0 130 0 0 -130z m360 0
l0 -130 -130 0 -130 0 0 130 0 130 130 0 130 0 0 -130z m360 0 l0 -131 -127 3
-128 3 -3 128 -3 127 131 0 130 0 0 -130z m360 0 l0 -131 -127 3 -128 3 -3
128 -3 127 131 0 130 0 0 -130z m360 0 l0 -130 -125 0 -125 0 0 130 0 130 125
0 125 0 0 -130z m368 3 l-3 -128 -127 -3 -128 -3 0 131 0 130 130 0 131 0 -3
-127z m362 -3 l0 -130 -130 0 -130 0 0 130 0 130 130 0 130 0 0 -130z m360 0
l0 -130 -130 0 -130 0 0 130 0 130 130 0 130 0 0 -130z m360 0 l0 -130 -130 0
-130 0 0 130 0 130 130 0 130 0 0 -130z m360 0 l0 -131 -127 3 -128 3 -3 128
-3 127 131 0 130 0 0 -130z m430 0 l0 -130 -160 0 -160 0 0 130 0 130 160 0
160 0 0 -130z m4790 0 l0 -130 -110 0 -110 0 0 130 0 130 110 0 110 0 0 -130z
m358 3 l-3 -128 -125 0 -125 0 -3 128 -3 127 131 0 131 0 -3 -127z m352 -3 l0
-130 -125 0 -125 0 0 130 0 130 125 0 125 0 0 -130z m270 0 l0 -131 -82 3 -83
3 -3 128 -3 127 86 0 85 0 0 -130z m-10900 -360 l0 -130 -50 0 c-57 0 -55 -6
-65 163 l-6 97 60 0 61 0 0 -130z m360 0 l0 -130 -130 0 -130 0 0 130 0 130
130 0 130 0 0 -130z m370 0 l0 -130 -130 0 -130 0 0 130 0 130 130 0 130 0 0
-130z m360 0 l0 -130 -130 0 -130 0 0 130 0 130 130 0 130 0 0 -130z m360 0
l0 -130 -130 0 -130 0 0 130 0 130 130 0 130 0 0 -130z m360 0 l0 -130 -130 0
-130 0 0 130 0 130 130 0 130 0 0 -130z m360 0 l0 -130 -130 0 -130 0 0 130 0
130 130 0 130 0 0 -130z m360 0 l0 -130 -130 0 -130 0 0 130 0 130 130 0 130
0 0 -130z m360 0 l0 -130 -125 0 -125 0 0 130 0 130 125 0 125 0 0 -130z m370
0 l0 -130 -130 0 -130 0 0 130 0 130 130 0 130 0 0 -130z m360 -10 l0 -140
-130 0 -130 0 0 140 0 140 130 0 130 0 0 -140z m360 0 l0 -140 -130 0 -130 0
0 140 0 140 130 0 130 0 0 -140z m360 0 l0 -140 -130 0 -130 0 0 140 0 140
130 0 130 0 0 -140z m360 0 l0 -140 -130 0 -130 0 0 140 0 140 130 0 130 0 0
-140z m430 0 l0 -140 -160 0 -160 0 0 140 0 140 160 0 160 0 0 -140z m4790 0
l0 -140 -110 0 -110 0 0 140 0 140 110 0 110 0 0 -140z m360 0 l0 -140 -130 0
-130 0 0 140 0 140 130 0 130 0 0 -140z m350 0 l0 -140 -125 0 -125 0 0 140 0
140 125 0 125 0 0 -140z m265 18 c-3 -68 -9 -131 -11 -140 -5 -15 -17 -18 -80
-18 l-74 0 0 140 0 140 86 0 86 0 -7 -122z m-8055 -312 c-6 -8 -187 -162 -401
-343 -245 -206 -384 -330 -376 -334 6 -4 228 -131 492 -283 l480 -276 1063 0
1062 0 0 -1813 0 -1812 -122 7 c-1481 86 -2906 807 -3870 1958 -633 755 -1052
1661 -1213 2623 -30 179 -39 254 -36 280 1 4 661 7 1467 7 1278 0 1465 -2
1454 -14z m7996 -228 c-18 -134 -117 -574 -147 -655 l-9 -23 -3777 0 -3778 0
-247 142 c-137 78 -248 145 -247 148 0 3 116 103 257 222 l257 217 3849 0
3849 1 -7 -52z m-4838 -2802 c1 -985 -1 -1793 -5 -1797 -8 -8 -158 -22 -350
-34 l-103 -7 0 1816 0 1816 228 -2 227 -3 3 -1789z m832 75 l0 -1720 -52 -15
c-71 -20 -371 -86 -391 -86 -16 0 -17 126 -17 1770 l0 1770 230 0 230 0 0
-1719z m830 148 l0 -1570 -72 -33 c-90 -41 -323 -132 -360 -141 l-28 -7 0
1661 0 1661 230 0 230 0 0 -1571z m828 230 l-3 -1341 -136 -86 c-139 -89 -270
-166 -301 -178 -17 -6 -18 68 -18 1470 l0 1476 230 0 230 0 -2 -1341z m832
347 l0 -994 -132 -125 c-139 -131 -308 -277 -320 -277 -10 0 -11 2374 -1 2383
3 4 107 7 230 7 l223 0 0 -994z m1250 985 c0 -37 -182 -450 -285 -648 -155
-296 -388 -656 -572 -883 -10 -12 -12 150 -13 763 l0 777 435 0 c258 0 435 -4
435 -9z"/>
<path d="M14536 17368 c-3 -24 -15 -159 -26 -302 l-20 -259 -48 -53 c-26 -29
-88 -97 -138 -151 l-92 -98 68 -62 68 -63 137 148 137 147 310 45 309 45 -70
62 -70 63 -213 -29 c-117 -16 -221 -33 -232 -37 -17 -7 -18 -3 -13 37 4 24 14
129 23 232 18 212 23 190 -67 268 l-58 50 -5 -43z"/>
<path d="M5642 17187 l-62 -62 115 -115 115 -115 -197 -197 -198 -198 -115
115 -115 115 -65 -65 -65 -65 313 -312 312 -313 65 65 65 65 -151 151 -150
151 195 199 195 199 153 -153 153 -152 65 65 65 65 -310 310 c-170 171 -312
310 -315 310 -3 0 -34 -28 -68 -63z"/>
<path d="M4823 16221 c-176 -60 -326 -327 -273 -485 26 -81 103 -136 188 -136
57 0 170 51 288 130 130 88 194 108 242 74 60 -42 65 -126 11 -208 -55 -82
-123 -126 -198 -126 l-39 0 -17 -70 c-10 -39 -14 -74 -10 -78 4 -4 34 -7 68
-7 48 0 75 7 119 28 77 38 174 143 224 244 32 66 38 89 42 158 4 73 1 85 -25
134 -38 72 -95 113 -167 119 -75 6 -133 -16 -261 -99 -133 -87 -172 -107 -224
-115 -36 -6 -43 -3 -71 24 -46 47 -38 114 25 196 28 36 97 76 131 76 17 0 23
12 37 71 9 39 15 75 11 80 -8 14 -43 10 -101 -10z"/>
<path d="M15483 15990 c-69 -15 -151 -61 -199 -112 -85 -91 -120 -207 -111
-363 15 -257 184 -507 415 -614 372 -170 685 132 576 557 -32 126 -126 286
-218 370 -138 128 -322 192 -463 162z m230 -190 c179 -56 319 -250 319 -445 1
-137 -50 -233 -153 -290 -47 -26 -64 -30 -134 -30 -72 0 -89 4 -150 34 -293
144 -369 566 -128 707 81 48 148 54 246 24z"/>
<path d="M4142 15230 l-143 -279 53 -27 c29 -15 206 -105 392 -202 l340 -175
15 23 c9 13 75 139 148 280 l131 256 -48 27 c-26 15 -53 27 -58 27 -6 0 -56
-88 -112 -195 l-101 -195 -119 60 c-65 33 -121 64 -125 70 -4 6 39 98 94 205
l101 194 -49 26 c-28 14 -55 25 -60 25 -5 0 -51 -82 -101 -182 -51 -101 -97
-188 -102 -195 -7 -9 -33 0 -104 35 -52 25 -94 51 -94 56 0 5 45 95 100 201
l100 192 -49 27 c-27 14 -53 26 -57 26 -5 0 -73 -126 -152 -280z"/>
<path d="M16097 14649 c-224 -86 -410 -159 -413 -162 -7 -7 56 -167 66 -167 4
0 89 32 189 70 100 39 185 70 189 70 4 0 43 -92 86 -205 43 -113 80 -205 82
-205 22 0 114 45 111 53 -37 95 -147 385 -149 395 -4 18 194 95 204 79 3 -7
36 -91 73 -187 37 -96 71 -185 76 -197 l8 -22 55 22 c31 12 56 25 56 28 0 6
-221 583 -224 585 0 0 -185 -70 -409 -157z"/>
<path d="M4047 14519 c-116 -27 -230 -128 -295 -261 -36 -73 -182 -494 -182
-523 0 -15 829 -280 840 -269 7 9 117 354 139 439 79 304 -31 536 -288 607
-69 19 -151 22 -214 7z m184 -199 c110 -41 167 -103 195 -209 12 -47 13 -73 5
-123 -10 -62 -78 -296 -90 -310 -8 -10 -584 176 -589 190 -6 19 67 231 106
305 38 74 97 130 159 153 56 20 154 17 214 -6z"/>
<path d="M16843 13493 c-40 -5 -40 -10 -13 -178 10 -65 17 -121 15 -124 -3 -2
-171 -30 -375 -61 -203 -31 -371 -58 -374 -61 -4 -4 21 -169 26 -175 2 -2 163
21 358 51 195 30 365 55 376 55 24 0 22 8 50 -178 l17 -114 51 7 c28 4 55 10
59 15 4 4 -18 179 -50 388 l-58 382 -25 -2 c-14 0 -40 -3 -57 -5z"/>
<path d="M3886 13160 c-263 -115 -480 -211 -483 -213 -2 -3 181 -149 407 -326
371 -289 409 -321 378 -321 -62 0 -62 2 -56 -217 l6 -200 -216 -6 c-120 -4
-269 -7 -333 -7 -64 0 -137 -3 -163 -6 l-46 -7 0 -90 0 -90 253 7 c138 3 339
9 446 12 l193 7 -7 296 c-4 163 -11 297 -14 299 -4 1 -2 43 4 92 l11 89 -103
78 c-57 43 -103 84 -103 92 0 37 53 427 58 432 4 4 54 26 112 50 58 23 110 46
116 51 6 5 14 41 18 81 4 39 9 80 12 90 3 9 2 17 -3 17 -4 0 -223 -95 -487
-210z m80 -286 c-9 -65 -16 -124 -16 -131 0 -22 -14 -15 -111 58 -52 39 -112
80 -134 92 l-40 20 45 12 c25 7 95 33 155 58 98 40 110 44 113 28 2 -10 -4
-72 -12 -137z"/>
<path d="M16328 12473 l-158 -4 0 -88 c0 -48 3 -190 7 -314 l6 -227 65 0 65 0
-4 223 -4 222 143 3 142 3 0 -220 c0 -121 4 -222 8 -225 5 -3 34 -2 65 1 l57
6 0 217 0 217 46 7 c26 3 75 6 110 6 l64 0 0 -225 0 -225 67 0 66 0 -6 113
c-4 61 -7 203 -7 315 l0 202 -287 -2 c-159 -1 -359 -4 -445 -5z"/>
<path d="M16172 11674 l-12 -98 151 -152 152 -152 -54 -27 c-30 -15 -113 -61
-185 -101 l-131 -75 -12 -96 c-6 -53 -10 -97 -9 -99 2 -1 116 62 253 142 l250
144 187 -188 c212 -212 188 -204 207 -67 l8 60 -134 136 -134 135 164 93 164
93 10 91 c6 51 10 93 9 95 -2 1 -92 -50 -202 -114 -109 -64 -212 -123 -229
-131 l-30 -16 -205 213 -206 212 -12 -98z"/>
<path d="M3883 11457 c-28 -7 -54 -15 -57 -18 -5 -5 71 -429 78 -436 6 -6 116
21 116 28 0 11 -40 220 -46 240 -7 23 37 32 87 19 91 -25 166 -136 195 -290
39 -206 -26 -375 -174 -447 -48 -23 -70 -28 -137 -28 -70 0 -87 4 -133 30
-131 72 -221 243 -222 421 0 53 23 145 45 179 12 19 8 27 -40 80 l-52 59 -17
-26 c-38 -58 -59 -142 -64 -249 -12 -288 125 -552 338 -653 59 -28 74 -31 165
-31 93 0 105 3 172 34 128 60 219 180 253 332 8 38 11 100 7 185 -11 270 -113
478 -272 550 -65 30 -166 39 -242 21z"/>
<path d="M16786 10608 c-8 -29 -25 -91 -37 -137 -13 -45 -28 -85 -34 -87 -8
-4 -504 129 -716 192 -13 3 -21 -13 -39 -81 -13 -47 -21 -88 -18 -91 3 -3 167
-50 364 -105 197 -55 360 -102 362 -103 2 -2 -13 -59 -32 -127 -49 -175 -50
-160 12 -177 29 -8 55 -12 59 -9 6 7 202 700 206 731 1 14 -9 22 -43 32 -25 8
-50 14 -57 14 -6 0 -18 -24 -27 -52z"/>
<path d="M4150 10073 c-228 -96 -418 -178 -422 -181 -9 -9 51 -152 63 -152 5
0 132 52 281 115 150 63 273 113 275 112 1 -2 -6 -26 -17 -53 -10 -28 -69
-251 -130 -495 -61 -244 -113 -451 -116 -460 -3 -12 117 35 398 153 222 94
413 174 425 179 l22 8 -31 76 c-17 41 -36 75 -42 75 -6 0 -133 -51 -281 -114
-149 -62 -271 -113 -273 -111 -2 1 4 21 13 43 14 34 255 975 251 978 0 1 -188
-77 -416 -173z"/>
<path d="M15760 9899 c-19 -45 -29 -84 -24 -88 20 -18 808 -321 815 -314 4 4
21 43 37 85 l30 77 -132 52 c-72 28 -255 101 -406 160 -151 60 -277 109 -281
109 -4 0 -21 -36 -39 -81z"/>
<path d="M15487 9308 l-135 -263 51 -27 c29 -15 55 -27 59 -28 3 0 48 80 99
178 50 97 93 178 94 179 1 2 150 -73 331 -167 181 -93 334 -170 339 -170 15 0
88 151 78 161 -10 9 -765 399 -774 399 -4 0 -68 -118 -142 -262z"/>
<path d="M4733 8748 c-126 -266 -230 -484 -229 -485 2 -3 1059 57 1063 61 3 2
-18 39 -47 81 l-51 76 -117 -7 c-64 -4 -124 -8 -132 -8 -15 -1 -258 347 -259
372 -1 7 24 62 55 123 l55 111 -52 79 c-28 43 -52 79 -54 79 -1 0 -105 -217
-232 -482z m327 -292 c0 -2 -48 -7 -107 -11 -60 -3 -130 -10 -157 -16 -27 -5
-51 -7 -54 -5 -2 3 5 17 16 33 11 15 45 79 77 142 l56 114 85 -127 c46 -69 84
-128 84 -130z"/>
<path d="M15096 8666 c-97 -140 -176 -258 -176 -262 0 -5 22 -23 49 -41 l49
-32 24 32 c13 18 69 96 123 175 54 78 102 145 107 148 6 4 182 -109 236 -152
2 -1 -53 -83 -122 -182 -69 -99 -126 -183 -126 -186 0 -7 87 -66 98 -66 6 0
65 79 132 175 67 96 125 175 130 175 14 0 170 -111 170 -121 0 -5 -52 -84
-116 -176 -64 -92 -118 -173 -121 -179 -4 -10 72 -74 88 -74 10 0 351 492 353
509 1 10 -702 511 -718 511 -2 0 -83 -114 -180 -254z"/>
<path d="M14794 8201 c-108 -26 -255 -154 -313 -273 -64 -130 -52 -247 34
-327 87 -80 171 -78 353 10 198 95 263 109 307 64 80 -79 -37 -255 -169 -255
-33 0 -35 -2 -61 -71 -32 -84 -27 -93 49 -85 76 8 152 51 232 131 94 95 137
178 137 273 1 74 -13 110 -60 154 -34 33 -92 58 -132 58 -46 0 -156 -38 -281
-97 -164 -77 -232 -83 -270 -20 -39 64 -13 145 71 221 59 53 105 70 169 63
l47 -6 27 67 c14 37 26 70 26 74 0 8 -83 28 -112 27 -13 -1 -37 -4 -54 -8z"/>
<path d="M5535 8190 c-22 -3 -51 -12 -65 -19 -36 -19 -89 -71 -107 -106 -24
-44 -22 -131 3 -182 12 -24 20 -43 19 -43 -1 0 -19 7 -38 15 -126 53 -260 -43
-260 -184 0 -104 35 -158 280 -420 l79 -83 322 302 322 302 -19 26 c-47 66
-329 341 -369 361 -54 27 -115 38 -167 31z m153 -187 c21 -10 73 -53 116 -97
l79 -80 -104 -98 -104 -98 -58 63 c-89 95 -117 142 -117 198 0 37 6 55 27 79
44 52 97 63 161 33z m-247 -302 c24 -17 69 -55 99 -85 l54 -56 -34 -36 c-19
-20 -61 -59 -94 -87 l-59 -51 -50 54 c-117 127 -133 186 -68 251 49 49 88 52
152 10z"/>
<path d="M6601 7053 c-105 -37 -167 -146 -159 -277 10 -154 107 -245 262 -246
99 0 143 16 201 75 59 58 75 102 75 201 0 161 -109 265 -274 263 -34 0 -81 -8
-105 -16z"/>
<path d="M13650 7061 c-74 -24 -138 -80 -164 -143 -23 -54 -21 -191 3 -243 43
-96 125 -144 244 -145 121 0 196 41 244 133 23 45 27 64 27 137 0 94 -13 130
-68 188 -50 53 -101 75 -186 78 -41 2 -86 0 -100 -5z"/>
<path d="M7448 6362 l-104 -317 75 -45 c137 -80 387 -185 551 -230 347 -95
591 11 567 246 -15 147 -164 284 -472 434 -117 58 -412 190 -492 221 -21 8
-26 -4 -125 -309z m379 122 c289 -124 444 -229 504 -345 34 -65 33 -152 -3
-206 -72 -109 -271 -121 -526 -31 -94 33 -262 114 -262 126 0 4 34 118 77 255
48 156 81 247 89 247 7 0 62 -21 121 -46z"/>
<path d="M12398 6446 l-98 -40 -16 -50 c-71 -216 -273 -746 -285 -746 -29 0
-549 226 -549 239 0 3 46 48 103 98 129 116 328 318 305 310 -10 -3 -55 -16
-100 -28 -82 -22 -85 -24 -178 -114 -52 -51 -160 -152 -240 -224 l-145 -131
-18 162 c-9 89 -19 164 -22 166 -5 6 -154 -14 -161 -20 -6 -6 53 -678 60 -685
6 -6 166 13 173 21 2 2 -2 61 -9 131 l-12 127 54 49 c30 27 61 49 68 49 7 0
70 -29 140 -64 70 -35 180 -86 244 -114 l117 -51 88 25 c147 42 247 76 259 88
6 6 31 65 55 132 l43 121 91 33 c49 18 156 61 237 95 l148 63 101 -71 102 -70
95 47 94 47 -83 53 c-139 87 -287 188 -419 286 -69 51 -129 96 -135 99 -5 4
-54 -11 -107 -33z m66 -125 c21 -22 81 -70 132 -107 51 -38 91 -71 88 -75 -11
-18 -384 -164 -384 -150 0 4 17 57 39 117 21 60 47 142 56 182 10 39 21 72 24
72 4 0 24 -18 45 -39z"/>
<path d="M8715 6217 c-6 -20 -115 -642 -115 -658 0 -10 26 -21 87 -36 49 -12
89 -21 90 -19 1 1 13 71 27 155 13 84 26 155 28 157 2 2 76 -12 164 -31 87
-19 233 -47 324 -62 91 -15 166 -27 167 -28 1 0 -4 -73 -11 -160 -8 -88 -13
-161 -12 -162 3 -4 178 -24 181 -21 5 5 47 689 43 693 -1 1 -40 7 -84 12 l-82
9 -6 -46 c-3 -25 -8 -89 -12 -142 -7 -97 -7 -98 -33 -98 -70 0 -604 102 -622
119 -4 3 1 58 12 121 29 177 33 164 -62 188 -57 14 -81 17 -84 9z"/>
<path d="M10138 5868 c-56 -84 -164 -235 -240 -337 -76 -101 -137 -186 -135
-188 2 -1 44 -6 93 -9 l90 -7 74 107 74 106 157 0 c86 0 196 3 246 6 l89 7 83
-107 c75 -97 85 -107 109 -102 15 3 57 8 95 11 37 4 67 8 67 11 0 2 -47 61
-103 131 -112 139 -251 322 -336 446 l-53 77 -104 0 -103 0 -103 -152z m226
25 c13 -27 60 -98 104 -159 l80 -111 -76 -7 c-87 -7 -332 -8 -332 -1 0 2 35
58 78 122 42 65 86 137 96 161 11 23 21 42 22 42 2 0 15 -21 28 -47z"/>
<path d="M3843 5218 c-329 -369 -598 -676 -598 -683 0 -20 358 -327 615 -526
437 -340 888 -636 1375 -904 88 -48 161 -89 162 -90 2 -1 -164 -339 -367 -751
-203 -412 -370 -752 -370 -755 0 -9 536 -269 740 -359 1594 -704 3264 -1043
5015 -1017 898 13 1675 107 2529 303 908 210 1845 547 2637 950 l136 69 -283
590 c-465 969 -441 917 -424 927 8 5 103 56 210 115 666 361 1349 837 1892
1318 l46 40 -549 720 c-302 396 -553 721 -558 723 -5 2 -58 -41 -118 -95 -157
-142 -279 -245 -444 -375 -1265 -996 -2765 -1605 -4359 -1772 -532 -56 -1142
-60 -1675 -11 -1807 168 -3503 907 -4862 2119 l-152 135 -598 -671z m819 68
c1956 -1620 4563 -2305 7098 -1865 1500 260 2924 919 4095 1894 67 55 128 106
137 113 14 11 59 -44 375 -458 197 -258 358 -474 358 -479 0 -28 -548 -442
-873 -659 -408 -272 -712 -447 -1147 -662 -1103 -545 -2293 -881 -3525 -994
-594 -55 -1275 -55 -1870 0 -2024 186 -3921 970 -5503 2273 -72 60 -125 111
-123 118 3 7 180 208 393 447 l387 435 28 -22 c15 -12 91 -75 170 -141z m1154
-2477 c1836 -870 3960 -1177 5999 -868 938 142 1857 414 2719 803 93 42 173
75 178 74 9 -3 588 -1204 588 -1219 0 -15 -433 -210 -733 -330 -1087 -434
-2221 -699 -3397 -793 -624 -50 -1345 -47 -1975 9 -1289 115 -2568 450 -3735
978 -289 131 -380 176 -380 189 0 17 592 1218 601 1218 3 0 64 -27 135 -61z"/>
<path d="M15748 4824 c-48 -15 -191 -106 -262 -167 l-39 -33 207 -304 c113
-168 210 -306 215 -308 17 -6 91 50 84 62 -4 6 -45 67 -92 135 l-84 124 29 24
c41 33 124 73 151 73 36 0 91 -32 162 -95 105 -93 103 -92 156 -59 48 31 53
39 31 47 -7 3 -54 40 -104 81 -98 82 -142 106 -196 106 l-35 0 24 53 c29 62
31 108 6 162 -22 48 -54 79 -103 100 -45 18 -88 18 -150 -1z m110 -98 c61 -33
81 -128 41 -193 -24 -38 -159 -138 -170 -126 -4 5 -39 55 -78 113 l-72 104 23
22 c13 13 50 39 82 58 65 39 129 47 174 22z"/>
<path d="M4862 4773 c-48 -69 -393 -605 -390 -608 14 -11 90 -56 92 -53 1 2
35 55 76 118 41 63 75 116 76 118 1 2 27 9 57 16 l56 13 5 -51 c6 -51 26 -366
26 -398 0 -14 97 -84 105 -76 2 2 -5 122 -16 267 -10 146 -17 266 -15 268 2 3
245 63 374 93 l54 12 -57 38 -56 37 -112 -30 c-62 -16 -166 -44 -232 -62 -66
-18 -121 -32 -122 -31 -1 1 40 68 92 148 52 81 95 149 95 151 0 5 -77 57 -84
57 -3 0 -13 -12 -24 -27z"/>
<path d="M15125 4448 c-104 -61 -192 -112 -194 -114 -4 -4 356 -622 373 -642
9 -9 55 13 211 104 110 65 202 118 204 120 2 2 -6 19 -18 38 l-22 35 -77 -46
c-188 -111 -234 -135 -242 -127 -19 20 -129 218 -125 225 3 4 66 42 139 85
142 82 140 79 103 128 -13 18 -20 15 -148 -59 -74 -43 -137 -79 -140 -81 -3
-1 -31 43 -64 98 -68 118 -80 94 103 200 67 39 125 74 127 78 5 8 -26 70 -35
70 -3 0 -90 -50 -195 -112z"/>
<path d="M5260 4128 c-96 -177 -176 -327 -178 -334 -2 -7 16 -23 39 -34 40
-21 43 -21 53 -4 6 10 70 129 143 264 73 135 136 251 140 259 5 7 9 -28 11
-80 2 -76 60 -662 65 -665 1 0 23 -12 49 -27 l46 -27 179 327 c98 179 179 330
181 334 4 10 -76 51 -87 44 -11 -6 -166 -290 -237 -434 l-51 -103 -6 115 c-6
104 -50 526 -62 603 -5 29 -9 32 -105 81 -3 1 -84 -142 -180 -319z"/>
<path d="M14805 4258 c-22 -11 -41 -22 -43 -23 -3 -3 75 -479 94 -569 8 -38
13 -70 12 -72 -2 -1 -40 44 -84 99 -45 56 -139 168 -208 250 l-126 147 -50
-25 c-28 -14 -50 -31 -50 -37 0 -21 101 -621 106 -632 6 -13 -25 23 -221 258
-82 98 -161 192 -175 208 l-25 30 -48 -23 c-26 -13 -47 -27 -47 -31 0 -5 17
-27 38 -51 21 -23 136 -153 256 -289 l217 -248 49 25 c28 14 50 30 50 35 0 23
-82 549 -91 584 -6 21 -8 40 -6 42 2 3 22 -19 44 -48 31 -41 327 -393 363
-431 4 -5 31 3 59 18 49 24 51 27 46 58 -3 18 -25 178 -50 357 -53 387 -54
390 -63 390 -4 -1 -25 -10 -47 -22z"/>
<path d="M6207 3969 c-145 -34 -268 -178 -298 -348 -34 -193 90 -363 304 -417
172 -45 341 37 424 204 102 203 46 414 -135 510 -103 55 -204 72 -295 51z
m218 -103 c150 -70 194 -239 108 -409 -98 -194 -326 -238 -455 -88 -46 54 -62
112 -56 204 8 124 90 252 191 297 60 28 148 26 212 -4z"/>
<path d="M6830 3703 c0 -32 -7 -206 -15 -388 -8 -181 -11 -332 -7 -336 4 -3
28 -13 54 -22 l47 -15 159 226 c87 125 171 247 186 272 l28 45 -6 -56 c-8 -76
-37 -591 -34 -594 2 -1 25 -10 53 -19 39 -13 52 -14 62 -4 6 7 111 152 233
323 l221 309 -52 18 c-29 10 -56 15 -60 11 -4 -5 -87 -127 -185 -273 l-177
-265 6 65 c6 52 36 534 37 576 0 6 -18 16 -41 23 -23 7 -47 15 -54 17 -14 6
-46 -38 -240 -326 -76 -113 -140 -207 -143 -210 -2 -3 -2 24 2 60 8 82 36 514
36 557 0 28 -4 33 -47 47 -26 9 -50 16 -55 16 -4 0 -8 -26 -8 -57z"/>
<path d="M13570 3725 c-111 -32 -199 -101 -250 -197 -103 -193 3 -481 203
-556 179 -67 407 21 494 191 50 98 42 261 -19 381 -31 61 -105 133 -167 163
-70 33 -179 40 -261 18z m185 -96 c99 -47 175 -169 183 -296 6 -94 -10 -152
-59 -207 -55 -62 -117 -90 -199 -90 -109 1 -193 61 -253 183 -29 60 -32 74
-32 161 0 86 3 100 28 142 66 113 216 162 332 107z"/>
<path d="M12851 3489 c-48 -9 -219 -65 -237 -77 -7 -5 20 -119 87 -360 53
-195 100 -356 103 -359 10 -11 96 19 96 33 0 8 -16 70 -35 138 -19 69 -35 128
-35 133 0 5 26 14 59 21 178 37 294 160 276 291 -20 146 -140 214 -314 180z
m143 -97 c89 -52 85 -189 -7 -250 -41 -27 -167 -65 -179 -54 -13 14 -80 274
-72 282 10 9 96 37 134 43 37 7 91 -2 124 -21z"/>
<path d="M7798 3068 c-59 -250 -82 -365 -74 -369 6 -4 101 -28 211 -53 110
-26 207 -49 216 -52 12 -3 19 6 27 36 l10 40 -37 9 c-20 5 -98 24 -173 41 -76
18 -138 35 -138 39 0 4 34 151 75 326 42 175 72 322 68 326 -5 4 -28 10 -54
14 l-45 7 -86 -364z"/>
<path d="M8449 3304 c0 -5 -28 -171 -63 -369 -35 -198 -60 -363 -57 -367 3 -3
108 -24 233 -45 224 -38 227 -39 232 -18 17 61 20 59 -169 90 -160 27 -175 31
-175 50 0 28 39 237 45 243 3 3 73 -6 157 -20 84 -14 155 -24 156 -23 2 2 7
19 12 38 9 42 25 35 -172 68 -107 18 -138 27 -138 39 0 16 32 213 36 218 1 2
76 -9 167 -25 91 -15 168 -25 171 -23 2 3 7 21 11 40 l6 35 -198 33 c-109 19
-210 36 -225 39 -16 3 -28 2 -29 -3z"/>
<path d="M12009 3300 c-144 -26 -239 -114 -239 -220 0 -111 72 -171 247 -204
142 -27 182 -54 190 -128 6 -59 -23 -103 -84 -130 -56 -25 -152 -34 -213 -19
-51 11 -60 5 -60 -45 0 -39 14 -44 126 -44 234 0 387 138 333 301 -28 84 -103
128 -270 158 -88 17 -141 47 -155 90 -15 45 -7 77 28 111 38 38 94 53 189 48
l77 -3 6 39 c4 21 5 40 3 43 -9 9 -135 11 -178 3z"/>
<path d="M11523 3213 c-37 -4 -43 -7 -43 -26 0 -12 20 -177 45 -367 25 -190
45 -350 45 -357 0 -9 13 -11 48 -7 26 4 51 10 55 14 11 9 -86 743 -98 745 -5
1 -29 0 -52 -2z"/>
<path d="M9044 3189 c-9 -12 -75 -649 -74 -716 0 -18 9 -23 73 -34 111 -20
320 -18 387 5 164 54 250 174 258 356 5 119 -17 187 -84 255 -84 86 -209 127
-434 140 -92 6 -118 5 -126 -6z m311 -95 c154 -38 238 -152 222 -302 -14 -128
-72 -219 -169 -263 -47 -21 -67 -24 -180 -24 -71 0 -132 5 -138 11 -15 15 43
583 61 595 17 11 125 2 204 -17z"/>
<path d="M10827 3145 c-108 -7 -199 -14 -202 -16 -5 -5 36 -742 41 -748 5 -5
467 19 473 24 2 2 0 21 -3 41 l-7 36 -152 -6 c-84 -4 -164 -9 -178 -12 -26 -5
-27 -4 -33 58 -3 35 -7 97 -8 138 l-3 75 85 7 c47 3 120 6 163 7 l78 1 -3 43
c-2 23 -7 41 -13 41 -5 -1 -78 -5 -161 -8 l-151 -7 -7 47 c-3 26 -6 79 -6 119
l0 73 148 6 c197 9 192 8 192 56 0 37 -2 40 -27 39 -16 -1 -117 -7 -226 -14z"/>
<path d="M10103 3125 c-134 -29 -239 -109 -290 -219 -24 -54 -28 -73 -28 -161
0 -89 3 -107 28 -160 38 -81 94 -136 181 -176 66 -31 80 -33 198 -37 94 -3
146 0 202 13 l76 16 0 185 0 184 -134 0 -133 0 -7 -31 c-3 -17 -3 -35 0 -40 3
-5 41 -9 85 -9 l79 0 0 -115 0 -114 -35 -7 c-20 -3 -77 -4 -128 -2 -74 3 -102
9 -142 30 -109 57 -154 136 -155 268 0 68 5 95 24 135 29 64 102 129 169 152
65 21 221 22 288 0 l46 -14 11 36 c7 19 8 39 4 43 -15 15 -146 38 -212 37 -36
0 -93 -7 -127 -14z"/>
<path d="M6945 2038 c-2 -7 -57 -175 -121 -373 -64 -198 -118 -365 -121 -371
-2 -6 20 -17 49 -26 29 -8 136 -40 238 -71 262 -77 244 -75 258 -30 6 20 10
39 7 41 -2 2 -88 28 -190 58 -103 30 -193 58 -200 62 -10 5 -4 36 26 132 21
69 41 130 43 136 3 8 59 -5 168 -37 90 -27 170 -49 179 -49 11 0 19 12 24 36
3 20 4 38 2 40 -2 2 -75 25 -163 50 -87 25 -163 50 -168 55 -9 8 48 215 63
232 4 4 86 -15 181 -43 95 -27 177 -50 180 -50 4 0 12 18 18 41 7 30 7 41 -1
44 -7 2 -55 15 -107 30 -52 14 -152 44 -221 66 -143 44 -138 43 -144 27z"/>
<path d="M13134 1960 c-174 -35 -269 -186 -244 -386 35 -274 201 -445 393
-404 161 34 248 146 248 319 0 96 -13 155 -56 248 -75 163 -207 249 -341 223z
m120 -113 c70 -54 133 -188 157 -335 20 -121 -9 -205 -82 -243 -121 -61 -236
30 -297 234 -26 91 -32 221 -12 272 38 98 153 133 234 72z"/>
<path d="M7657 1814 c-80 -25 -147 -112 -147 -190 0 -30 45 -117 74 -144 15
-14 71 -54 124 -90 53 -36 107 -80 119 -99 40 -60 26 -126 -36 -168 -66 -45
-221 -20 -328 51 l-51 35 -28 -36 -27 -36 24 -20 c13 -11 51 -33 84 -48 205
-96 421 -74 485 51 66 129 22 216 -175 350 -107 73 -135 107 -135 163 0 109
141 140 292 64 l69 -34 25 36 c23 34 23 37 7 49 -29 23 -104 52 -168 68 -76
17 -146 17 -208 -2z"/>
<path d="M12440 1768 c-36 -10 -200 -126 -200 -141 0 -12 30 -67 36 -67 4 0
35 23 70 50 43 34 66 46 69 38 3 -7 36 -154 73 -325 38 -172 71 -316 75 -319
3 -3 31 0 62 7 43 9 55 16 52 28 -2 9 -41 179 -87 379 -67 291 -86 362 -99
361 -9 0 -32 -5 -51 -11z"/>
<path d="M8146 1729 c-3 -8 -7 -27 -8 -44 l-3 -30 133 -24 c101 -19 132 -29
132 -41 0 -8 -25 -167 -57 -352 -31 -186 -54 -340 -52 -343 3 -2 31 -6 64 -7
l58 -3 55 345 c30 190 56 347 58 349 2 2 60 -4 129 -13 69 -10 132 -15 141
-12 11 4 14 17 12 43 -3 38 -3 38 -58 46 -71 10 -533 86 -571 94 -19 4 -30 1
-33 -8z"/>
<path d="M11689 1636 c-90 -32 -145 -86 -183 -180 -16 -41 -20 -73 -20 -166 0
-182 50 -310 152 -387 55 -42 111 -56 193 -51 161 12 263 130 276 319 14 191
-90 410 -219 464 -45 18 -149 19 -199 1z m148 -83 c83 -39 146 -203 147 -378
1 -81 -3 -109 -20 -146 -55 -120 -206 -131 -279 -20 -86 130 -108 384 -41 483
48 72 121 95 193 61z"/>
<path d="M8910 1596 c0 -10 -20 -186 -46 -393 -25 -206 -43 -377 -41 -380 11
-10 170 -33 277 -39 262 -15 443 71 512 244 18 47 22 76 23 167 0 100 -2 115
-28 167 -77 157 -245 231 -558 245 -127 6 -139 5 -139 -11z m321 -90 c127 -27
205 -81 250 -172 30 -60 31 -69 27 -151 -3 -74 -9 -97 -33 -142 -72 -131 -226
-195 -418 -171 -51 6 -95 14 -98 18 -4 4 8 138 27 297 18 160 33 300 33 313 1
21 5 22 74 22 39 0 102 -7 138 -14z"/>
<path d="M10970 1557 c-62 -14 -170 -65 -177 -83 -4 -12 3 -29 25 -62 7 -10
20 -6 59 18 31 20 75 36 116 43 59 10 72 9 113 -9 62 -25 86 -59 92 -128 4
-46 0 -65 -21 -108 -38 -77 -117 -168 -254 -293 -108 -98 -121 -114 -122 -144
l-1 -34 116 6 c63 4 198 14 300 24 l184 17 0 43 c0 51 15 49 -185 28 -77 -8
-160 -15 -184 -15 l-45 0 115 118 c64 64 131 139 149 166 114 168 85 339 -68
403 -48 20 -148 25 -212 10z"/>
<path d="M10030 1060 l0 -40 175 0 175 0 0 40 0 40 -175 0 -175 0 0 -40z"/>
</g>
</svg>
