<?xml version="1.0" standalone="no"?>
<!DOCTYPE svg PUBLIC "-//W3C//DTD SVG 20010904//EN"
 "http://www.w3.org/TR/2001/REC-SVG-20010904/DTD/svg10.dtd">
<svg version="1.0" xmlns="http://www.w3.org/2000/svg"
 width="974.000000pt" height="491.000000pt" viewBox="0 0 974.000000 491.000000"
 preserveAspectRatio="xMidYMid meet">
<metadata>
Created by potrace 1.15, written by Peter Selinger 2001-2017
</metadata>
<g transform="translate(0.000000,491.000000) scale(0.100000,-0.100000)"
fill="#000000" stroke="none">
<path d="M1037 4235 c-84 -23 -123 -63 -110 -114 7 -27 15 -26 79 5 59 29 130
35 169 14 37 -20 58 -73 50 -129 -10 -73 -54 -139 -185 -277 -120 -126 -138
-154 -125 -193 6 -20 13 -21 225 -21 189 0 219 2 224 16 10 25 7 42 -10 58
-13 13 -42 16 -162 16 l-146 0 70 73 c146 148 201 232 214 326 24 177 -106
278 -293 226z"/>
<path d="M1642 4241 c-81 -21 -151 -116 -173 -236 -6 -34 -9 -109 -6 -175 7
-173 44 -257 129 -301 34 -17 55 -20 124 -17 73 3 87 7 126 33 87 62 123 182
115 380 -6 169 -40 250 -120 296 -43 24 -140 34 -195 20z m153 -114 c42 -42
55 -103 55 -256 0 -137 -16 -204 -58 -244 -61 -58 -153 -42 -194 35 -21 40
-23 55 -23 203 0 132 3 168 19 208 22 59 62 87 125 87 35 0 49 -6 76 -33z"/>
<path d="M2759 4234 c-153 -47 -172 -236 -34 -327 l33 -21 -51 -36 c-85 -60
-113 -119 -95 -204 20 -92 95 -137 229 -137 125 0 199 33 233 106 21 44 23
123 3 161 -18 34 -60 74 -104 99 l-31 18 39 29 c96 69 116 185 48 263 -52 59
-169 81 -270 49z m177 -97 c51 -45 30 -133 -42 -178 -30 -18 -39 -19 -63 -9
-16 6 -43 27 -61 45 -27 27 -33 42 -33 76 0 62 34 89 113 89 47 0 64 -5 86
-23z m-35 -325 c61 -40 80 -64 86 -110 4 -33 1 -44 -25 -73 -30 -33 -32 -34
-112 -34 -80 0 -82 1 -111 33 -34 38 -38 83 -10 126 20 30 95 86 116 86 6 0
31 -13 56 -28z"/>
<path d="M7559 4237 c-63 -24 -97 -56 -129 -120 -75 -152 -57 -459 32 -548 45
-45 86 -59 168 -59 79 0 127 19 171 67 60 64 83 153 82 318 -2 241 -64 340
-219 351 -45 3 -82 0 -105 -9z m140 -92 c57 -29 87 -151 78 -315 -9 -169 -52
-236 -148 -234 -59 1 -90 25 -116 93 -26 67 -26 306 0 373 34 88 111 122 186
83z"/>
<path d="M8094 4232 c-83 -29 -104 -47 -104 -88 0 -46 17 -51 77 -21 80 41
152 40 195 -3 29 -29 30 -34 26 -94 -5 -86 -44 -147 -191 -302 -112 -118 -118
-127 -115 -162 l3 -37 220 0 220 0 3 37 c4 47 2 47 -177 51 l-133 2 84 90
c154 165 188 223 196 327 6 89 -20 147 -84 184 -60 35 -149 42 -220 16z"/>
<path d="M8699 4237 c-63 -24 -97 -56 -128 -120 -39 -79 -55 -207 -42 -334 11
-105 33 -166 75 -212 43 -46 83 -61 166 -61 111 0 170 38 217 137 54 116 52
371 -4 482 -40 79 -90 112 -180 117 -42 3 -82 -1 -104 -9z m141 -92 c16 -9 36
-28 44 -43 51 -99 46 -374 -8 -457 -41 -62 -144 -69 -191 -14 -39 47 -50 101
-50 249 0 154 15 211 66 255 36 29 94 34 139 10z"/>
<path d="M2182 4181 c-50 -33 -92 -68 -94 -78 -10 -48 17 -67 57 -40 11 8 41
26 68 41 l47 28 0 -266 0 -265 -82 -3 -83 -3 0 -35 0 -35 205 0 205 0 0 35 0
35 -72 3 -73 3 0 319 0 320 -44 0 c-37 0 -58 -10 -134 -59z"/>
<path d="M4173 4179 c-88 -57 -93 -62 -93 -95 0 -45 17 -45 103 5 l67 40 0
-265 0 -264 -79 0 c-71 0 -80 -2 -86 -20 -3 -11 -3 -29 0 -40 6 -19 15 -20
211 -20 l205 0 -3 38 -3 37 -67 3 -68 3 -2 317 -3 317 -45 3 c-40 2 -55 -4
-137 -59z"/>
<path d="M5724 4226 c-3 -8 -4 -27 -2 -43 l3 -28 176 -5 177 -5 -135 -303
c-74 -167 -132 -310 -129 -318 6 -15 72 -20 93 -6 7 4 73 149 148 321 113 262
136 321 133 355 l-3 41 -228 3 c-190 2 -228 0 -233 -12z"/>
<path d="M3425 3820 c-3 -11 -3 -29 0 -40 6 -19 15 -20 141 -20 l135 0 -3 38
-3 37 -132 3 c-125 2 -132 2 -138 -18z"/>
<path d="M4857 3833 c-4 -3 -7 -21 -7 -40 l0 -33 134 0 c126 0 135 1 141 20 3
11 3 29 0 40 -6 19 -15 20 -134 20 -70 0 -131 -3 -134 -7z"/>
<path d="M6537 3833 c-4 -3 -7 -21 -7 -40 l0 -33 134 0 c126 0 135 1 141 20 3
11 3 29 0 40 -6 19 -15 20 -134 20 -70 0 -131 -3 -134 -7z"/>
<path d="M4181 2762 c-61 -122 -111 -226 -111 -232 0 -6 31 -10 75 -10 l75 0
0 -325 0 -325 75 0 75 0 0 325 0 325 75 0 c41 0 75 3 74 8 0 4 -51 108 -113
232 l-113 225 -112 -223z"/>
<path d="M5881 2762 c-61 -122 -111 -226 -111 -232 0 -6 31 -10 75 -10 l75 0
0 -325 0 -325 75 0 75 0 0 325 0 325 75 0 c41 0 75 3 74 8 0 4 -51 108 -113
232 l-113 225 -112 -223z"/>
<path d="M8161 2762 c-61 -122 -111 -226 -111 -232 0 -6 31 -10 75 -10 l75 0
0 -325 0 -325 75 0 75 0 0 325 0 325 75 0 c41 0 75 3 74 8 0 4 -51 108 -113
232 l-113 225 -112 -223z"/>
<path d="M1571 2672 c-61 -122 -111 -226 -111 -232 0 -6 31 -10 75 -10 l75 0
0 -325 0 -325 75 0 75 0 0 325 0 325 75 0 c41 0 75 3 74 8 0 4 -51 108 -113
232 l-113 225 -112 -223z"/>
<path d="M4950 1210 l0 -190 78 0 c113 0 112 -1 112 192 0 189 1 188 -113 188
l-77 0 0 -190z m118 128 c8 -8 12 -51 12 -128 0 -123 -6 -140 -47 -140 -23 0
-23 1 -23 140 0 139 0 140 23 140 13 0 28 -5 35 -12z"/>
<path d="M350 1218 c-18 -95 -35 -181 -38 -190 -4 -15 2 -18 32 -18 29 0 36 4
36 19 0 36 12 51 41 51 24 0 29 -5 35 -35 6 -31 10 -35 39 -35 l32 0 -24 123
c-13 67 -29 152 -35 190 l-12 67 -36 0 -36 0 -34 -172z"/>
<path d="M1050 1326 l0 -65 -47 -3 -48 -3 0 -120 0 -120 83 -2 82 -2 0 189 0
190 -35 0 -35 0 0 -64z"/>
<path d="M2087 1283 c25 -75 37 -133 40 -190 l5 -83 29 0 c29 0 29 0 29 61 0
52 39 205 77 307 4 8 -6 12 -30 12 -34 0 -35 -1 -52 -65 -10 -36 -21 -62 -25
-58 -5 4 -15 34 -24 66 -16 55 -18 57 -50 57 l-34 0 35 -107z"/>
<path d="M3910 1200 l0 -191 93 3 92 3 3 80 c3 69 0 82 -16 96 -20 15 -20 16
-1 28 17 10 19 22 17 89 l-3 77 -92 3 -93 3 0 -191z"/>
<path d="M4147 1383 c-4 -3 -7 -34 -7 -67 l0 -62 65 -64 c54 -53 65 -70 65
-97 0 -30 -3 -33 -30 -33 -28 0 -30 3 -30 35 0 33 -2 35 -35 35 l-36 0 3 -57
3 -58 90 0 90 0 3 70 3 70 -61 60 c-49 49 -60 65 -60 92 0 30 3 33 30 33 28 0
30 -3 30 -35 0 -32 2 -35 30 -35 l30 0 0 60 0 60 -88 0 c-49 0 -92 -3 -95 -7z"/>
<path d="M5980 1305 c0 -24 -5 -35 -15 -35 -9 0 -15 -9 -15 -25 0 -15 6 -25
15 -25 11 0 15 -20 17 -97 l3 -98 48 -3 c45 -3 47 -2 47 22 0 19 -5 26 -20 26
-18 0 -20 7 -20 75 0 68 2 75 20 75 15 0 20 7 20 25 0 18 -5 25 -20 25 -16 0
-20 7 -20 35 0 32 -2 35 -30 35 -28 0 -30 -3 -30 -35z"/>
<path d="M6840 1305 c0 -24 -5 -35 -15 -35 -9 0 -15 -9 -15 -25 0 -15 6 -25
15 -25 11 0 15 -20 17 -97 l3 -98 48 -3 c45 -3 47 -2 47 22 0 19 -5 26 -20 26
-18 0 -20 7 -20 75 0 68 2 75 20 75 15 0 20 7 20 25 0 18 -5 25 -20 25 -16 0
-20 7 -20 35 0 32 -2 35 -30 35 -28 0 -30 -3 -30 -35z"/>
<path d="M7680 1332 c0 -4 16 -55 35 -112 28 -84 35 -119 35 -182 l0 -78 35 0
35 0 0 73 c0 57 8 96 35 177 44 129 44 132 3 128 -31 -3 -34 -6 -50 -67 -9
-35 -19 -65 -21 -68 -3 -2 -12 28 -22 67 -17 70 -17 70 -51 70 -19 0 -34 -4
-34 -8z"/>
<path d="M9010 1150 l0 -190 30 0 30 0 0 190 0 190 -30 0 -30 0 0 -190z"/>
<path d="M9110 1150 l0 -190 30 0 30 0 0 190 0 190 -30 0 -30 0 0 -190z"/>
<path d="M5184 1257 c-2 -7 -3 -62 -2 -123 l3 -109 74 -3 c81 -3 91 2 91 51 0
24 -3 27 -35 27 -24 0 -35 -5 -35 -15 0 -8 -9 -15 -20 -15 -15 0 -20 7 -20 29
0 29 2 30 53 33 l52 3 3 44 c6 86 2 91 -84 91 -52 0 -76 -4 -80 -13z"/>
<path d="M5380 1100 l0 -170 30 0 c29 0 30 2 30 45 l0 45 44 0 c25 0 48 6 55
14 8 9 11 51 9 122 l-3 109 -82 3 -83 3 0 -171z"/>
<path d="M5586 1255 c-14 -38 -7 -55 24 -55 17 0 30 5 30 10 0 6 11 10 25 10
20 0 25 -5 25 -24 0 -23 -4 -25 -52 -28 l-53 -3 0 -70 0 -70 83 -3 83 -3 -3
123 -3 123 -76 3 c-63 2 -78 0 -83 -13z"/>
<path d="M5780 1144 l0 -124 30 0 30 0 0 95 c0 88 1 95 20 95 13 0 20 -7 20
-20 0 -16 7 -20 31 -20 30 0 30 1 27 48 l-3 47 -77 2 -78 2 0 -125z"/>
<path d="M6110 1144 l0 -124 30 0 30 0 0 95 c0 88 1 95 20 95 19 0 20 -7 20
-95 l0 -95 35 0 35 0 0 95 c0 88 1 95 20 95 19 0 20 -7 20 -95 l0 -95 35 0 36
0 -3 123 -3 122 -137 2 -138 1 0 -124z"/>
<path d="M6424 1257 c-2 -7 -3 -62 -2 -123 l3 -109 74 -3 c81 -3 91 2 91 51 0
24 -3 27 -35 27 -24 0 -35 -5 -35 -15 0 -8 -9 -15 -20 -15 -15 0 -20 7 -20 29
0 29 2 30 53 33 l52 3 3 44 c6 86 2 91 -84 91 -52 0 -76 -4 -80 -13z"/>
<path d="M6620 1144 l0 -124 30 0 30 0 0 89 c0 89 5 101 41 101 5 0 9 -43 9
-95 l0 -95 30 0 31 0 -3 123 -3 122 -82 2 -83 2 0 -125z"/>
<path d="M554 1247 c-2 -7 -3 -62 -2 -123 l3 -109 74 -3 c82 -3 91 2 91 56 0
30 -2 32 -35 32 -28 0 -35 -4 -35 -20 0 -13 -7 -20 -20 -20 -18 0 -20 7 -20
75 0 68 2 75 20 75 13 0 20 -7 20 -20 0 -16 7 -20 35 -20 32 0 35 2 35 29 0
57 -6 61 -86 61 -52 0 -76 -4 -80 -13z"/>
<path d="M757 1253 c-4 -3 -7 -19 -7 -35 0 -24 4 -28 30 -28 17 0 30 5 30 10
0 6 9 10 20 10 15 0 20 -7 20 -24 0 -23 -5 -25 -47 -28 l-48 -3 0 -70 0 -70
83 -3 82 -3 0 110 c0 60 -3 116 -6 125 -5 13 -22 16 -78 16 -40 0 -76 -3 -79
-7z"/>
<path d="M1154 1247 c-2 -7 -3 -62 -2 -123 l3 -109 74 -3 c81 -3 91 2 91 51 0
24 -3 27 -35 27 -24 0 -35 -5 -35 -15 0 -8 -9 -15 -20 -15 -15 0 -20 7 -20 29
0 29 2 30 53 33 l52 3 3 44 c6 86 2 91 -84 91 -52 0 -76 -4 -80 -13z"/>
<path d="M1350 1134 l0 -124 35 0 35 0 0 95 c0 88 1 95 20 95 19 0 20 -7 20
-95 l0 -95 30 0 30 0 0 95 c0 95 0 95 25 95 25 0 25 0 25 -95 l0 -95 30 0 31
0 -3 123 -3 122 -137 2 -138 1 0 -124z"/>
<path d="M1764 1247 c-2 -7 -3 -62 -2 -123 l3 -109 80 0 80 0 3 43 c3 41 2 42
-27 42 -24 0 -31 -4 -31 -20 0 -13 -7 -20 -20 -20 -18 0 -20 7 -20 75 0 68 2
75 20 75 13 0 20 -7 20 -20 0 -16 7 -20 31 -20 29 0 30 1 27 43 l-3 42 -78 3
c-58 2 -79 -1 -83 -11z"/>
<path d="M2294 1247 c-2 -7 -3 -62 -2 -123 l3 -109 74 -3 c81 -3 91 2 91 51 0
24 -3 27 -35 27 -24 0 -35 -5 -35 -15 0 -8 -9 -15 -20 -15 -15 0 -20 7 -20 29
0 29 2 30 53 33 l52 3 3 44 c6 86 2 91 -84 91 -52 0 -76 -4 -80 -13z"/>
<path d="M2497 1253 c-4 -3 -7 -19 -7 -35 0 -24 4 -28 30 -28 17 0 30 5 30 10
0 6 9 10 20 10 15 0 20 -7 20 -24 0 -23 -5 -25 -47 -28 l-48 -3 0 -70 0 -70
83 -3 82 -3 0 110 c0 60 -3 116 -6 125 -5 13 -22 16 -78 16 -40 0 -76 -3 -79
-7z"/>
<path d="M2690 1134 l0 -124 30 0 30 0 0 95 c0 88 1 95 20 95 13 0 20 -7 20
-20 0 -16 7 -20 31 -20 30 0 30 1 27 48 l-3 47 -77 2 -78 2 0 -125z"/>
<path d="M4374 1247 c-2 -7 -3 -62 -2 -123 l3 -109 74 -3 c82 -3 91 2 91 56 0
30 -2 32 -35 32 -28 0 -35 -4 -35 -20 0 -13 -7 -20 -20 -20 -18 0 -20 7 -20
75 0 68 2 75 20 75 13 0 20 -7 20 -20 0 -16 7 -20 35 -20 32 0 35 2 35 29 0
57 -6 61 -86 61 -52 0 -76 -4 -80 -13z"/>
<path d="M7916 1194 c-10 -25 -7 -208 4 -224 7 -11 28 -15 79 -15 38 0 73 4
78 8 10 11 17 167 9 212 l-7 35 -78 0 c-63 0 -80 -3 -85 -16z"/>
<path d="M8122 1088 l3 -123 83 -3 82 -3 0 126 0 125 -35 0 -35 0 0 -95 c0
-88 -1 -95 -20 -95 -19 0 -20 7 -20 95 l0 95 -30 0 -31 0 3 -122z"/>
<path d="M8320 1084 l0 -124 35 0 35 0 0 95 c0 78 3 95 15 95 8 0 15 -9 15
-20 0 -16 7 -20 35 -20 34 0 35 1 35 38 0 57 -7 61 -93 61 l-77 0 0 -125z"/>
<path d="M8610 1085 l0 -125 35 0 35 0 0 95 c0 78 3 95 15 95 8 0 15 -9 15
-20 0 -16 7 -20 36 -20 l35 0 -3 48 -3 47 -82 2 -83 3 0 -125z"/>
<path d="M8807 1204 c-4 -4 -7 -58 -7 -120 0 -129 3 -134 82 -134 92 0 89 -4
86 134 l-3 121 -75 3 c-42 1 -79 0 -83 -4z"/>
<path d="M5680 610 l0 -190 30 0 29 0 3 97 3 97 36 -94 c34 -90 37 -95 67 -98
l32 -3 0 190 0 191 -35 0 -35 0 -1 -92 0 -93 -36 93 c-34 86 -38 92 -65 92
l-28 0 0 -190z"/>
<path d="M540 725 c0 -51 -3 -65 -15 -65 -9 0 -15 -9 -15 -25 0 -16 6 -25 15
-25 12 0 15 -18 15 -100 l0 -100 30 0 30 0 0 100 c0 93 1 100 20 100 15 0 20
7 20 25 0 18 -5 25 -20 25 -17 0 -20 7 -20 40 0 33 3 40 20 40 15 0 20 7 20
25 0 23 -3 25 -50 25 l-50 0 0 -65z"/>
<path d="M760 600 l0 -190 85 0 c84 0 85 0 85 25 0 23 -3 25 -50 25 l-50 0 0
60 0 60 40 0 c36 0 40 3 40 25 0 23 -4 25 -40 25 l-40 0 0 55 0 55 50 0 c47 0
50 2 50 25 0 25 -1 25 -85 25 l-85 0 0 -190z"/>
<path d="M1560 600 l0 -190 30 0 30 0 0 190 0 190 -30 0 -30 0 0 -190z"/>
<path d="M1650 600 l0 -190 35 0 35 0 0 190 0 190 -35 0 -35 0 0 -190z"/>
<path d="M2480 695 c0 -19 -4 -35 -10 -35 -5 0 -10 -11 -10 -25 0 -14 5 -25
10 -25 6 0 10 -33 10 -77 0 -118 3 -123 61 -123 46 0 49 2 49 25 0 18 -5 25
-20 25 -18 0 -20 7 -20 75 0 68 2 75 20 75 15 0 20 7 20 25 0 18 -5 25 -20 25
-16 0 -20 7 -20 35 0 33 -2 35 -35 35 -33 0 -35 -2 -35 -35z"/>
<path d="M5916 654 c-10 -25 -7 -208 4 -224 7 -11 28 -15 79 -15 38 0 73 4 78
8 10 11 17 167 9 212 l-7 35 -78 0 c-63 0 -80 -3 -85 -16z"/>
<path d="M327 654 c-4 -4 -7 -58 -7 -120 0 -129 3 -134 82 -134 92 0 89 -4 86
134 l-3 121 -75 3 c-42 1 -79 0 -83 -4z"/>
<path d="M960 534 l0 -124 30 0 29 0 3 92 c3 79 6 93 21 96 15 3 17 -6 17 -92
l0 -96 35 0 36 0 -3 123 -3 122 -82 2 -83 2 0 -125z"/>
<path d="M1160 535 l0 -125 35 0 35 0 0 95 c0 78 3 95 15 95 8 0 15 -9 15 -20
0 -16 7 -20 36 -20 l35 0 -3 48 -3 47 -82 2 -83 3 0 -125z"/>
<path d="M1357 654 c-4 -4 -7 -58 -7 -120 0 -129 3 -134 82 -134 92 0 89 -4
86 134 l-3 121 -75 3 c-42 1 -79 0 -83 -4z"/>
<path d="M1750 534 l0 -124 35 0 35 0 0 95 c0 88 1 95 20 95 19 0 20 -7 20
-95 l0 -95 30 0 30 0 0 95 c0 95 0 95 25 95 25 0 25 0 25 -95 l0 -95 30 0 31
0 -3 123 -3 122 -137 2 -138 1 0 -124z"/>
<path d="M2066 645 c-9 -24 -7 -208 3 -223 5 -9 29 -12 82 -10 l74 3 3 38 c3
35 2 37 -27 37 -21 0 -31 -5 -31 -15 0 -8 -9 -15 -20 -15 -15 0 -20 7 -20 29
0 28 2 30 48 33 l47 3 0 65 0 65 -76 3 c-63 2 -78 0 -83 -13z"/>
<path d="M2260 534 l0 -124 35 0 34 0 3 92 c3 79 6 93 21 96 15 3 17 -6 17
-92 l0 -96 35 0 35 0 0 113 c0 61 -4 117 -8 124 -4 7 -38 11 -90 11 l-82 0 0
-124z"/>
</g>
</svg>
